<svg width="87" height="85" viewBox="0 0 87 85" fill="none" xmlns="http://www.w3.org/2000/svg">
<path d="M4.08431 58.2021H9.05425V60.0515H6.07437V64.2912H8.71042V66.1406H6.07437V72.1318H4.0791V58.2021H4.08431Z" fill="#4D4E56"/>
<path d="M11.9349 58.1602H14.05L16.8475 72.1311H14.8575L14.2949 69.0247H11.638L11.0753 72.1311H9.14258L11.9401 58.1602H11.9349ZM13.9875 67.2577L12.9612 61.6632L11.9349 67.2577H13.9875Z" fill="#4D4E56"/>
<path d="M17.9727 58.2021H19.9471V72.1318H17.9727V58.2021Z" fill="#4D4E56"/>
<path d="M23.0682 60.0515H21.1562V58.2021H26.9337V60.0515H25.0426V72.1318H23.0682V60.0515Z" fill="#4D4E56"/>
<path d="M28.0801 58.2021H30.0753V64.1934H32.8729V58.2021H34.8473V72.1318H32.8729V66.0634H30.0753V72.1318H28.0801V58.2021Z" fill="#4D4E56"/>
<path d="M39.4317 71.6321V69.5612C40.3173 70.097 41.0414 70.3752 41.7239 70.3752C42.5678 70.3752 43.2138 69.8961 43.2138 68.943V68.9018C43.2138 68.1033 42.9533 67.5264 41.6614 65.9964C39.9318 63.9461 39.3066 63.0703 39.3066 61.4991V61.4579C39.3066 59.4076 40.7132 58.0527 42.5262 58.0527C43.4743 58.0527 44.0786 58.233 44.6986 58.5524V60.6233C43.9328 60.1649 43.391 59.9485 42.745 59.9485C41.9375 59.9485 41.2967 60.4842 41.2967 61.36V61.4012C41.2967 62.1791 41.5572 62.5964 42.8439 64.1058C44.7142 66.2952 45.1987 67.2327 45.1987 68.8039V68.8452C45.1987 70.8955 43.7296 72.2709 41.8958 72.2709C40.9685 72.2709 40.1662 72.0133 39.4213 71.6321H39.4317Z" fill="#4D4E56"/>
<path d="M45.9746 65.3829V64.945C45.9746 60.1283 47.7875 58.0986 49.9808 58.0986C50.6632 58.0986 51.0279 58.1965 51.5332 58.4386V60.4683C51.0279 60.1695 50.6268 60.0098 50.1631 60.0098C48.9337 60.0098 47.9907 61.3029 47.9907 64.9244V65.4035C47.9907 69.1641 48.9389 70.318 50.184 70.318C50.6059 70.318 51.0696 70.1789 51.5749 69.8801V71.812C51.0748 72.1108 50.5486 72.2292 49.8662 72.2292C47.6729 72.2292 45.9798 70.1583 45.9798 65.3829H45.9746Z" fill="#4D4E56"/>
<path d="M52.9766 58.2021H54.9718V64.1934H57.7694V58.2021H59.7438V72.1318H57.7694V66.0634H54.9718V72.1318H52.9766V58.2021Z" fill="#4D4E56"/>
<path d="M61.1504 65.4654V64.8678C61.1504 60.1697 62.6403 58.0215 64.7711 58.0215C66.9018 58.0215 68.3917 60.1697 68.3917 64.8678V65.4654C68.3917 70.1636 66.9018 72.3118 64.7711 72.3118C62.6403 72.3118 61.1504 70.1636 61.1504 65.4654ZM66.3808 65.4654V64.8678C66.3808 61.2669 65.714 59.8142 64.7711 59.8142C63.8281 59.8142 63.1613 61.2669 63.1613 64.8678V65.4654C63.1613 69.0663 63.8281 70.5191 64.7711 70.5191C65.714 70.5191 66.3808 69.0663 66.3808 65.4654Z" fill="#4D4E56"/>
<path d="M69.5273 65.4654V64.8678C69.5273 60.1697 71.0173 58.0215 73.148 58.0215C75.2787 58.0215 76.7687 60.1697 76.7687 64.8678V65.4654C76.7687 70.1636 75.2787 72.3118 73.148 72.3118C71.0173 72.3118 69.5273 70.1636 69.5273 65.4654ZM74.7578 65.4654V64.8678C74.7578 61.2669 74.0909 59.8142 73.148 59.8142C72.2051 59.8142 71.5382 61.2669 71.5382 64.8678V65.4654C71.5382 69.0663 72.2051 70.5191 73.148 70.5191C74.0909 70.5191 74.7578 69.0663 74.7578 65.4654Z" fill="#4D4E56"/>
<path d="M78.1797 58.2021H80.1697V70.2824H83.0506V72.1318H78.1797V58.2021Z" fill="#4D4E56"/>
<path d="M28.4915 78.833V79.5336H25.6054V84.7624H24.7354V78.833H28.4915Z" fill="#4D4E56"/>
<path d="M34.3726 81.8006C34.3726 82.2591 34.2893 82.6712 34.1278 83.0524C33.9611 83.4285 33.7371 83.753 33.4505 84.0312C33.164 84.3042 32.8202 84.5155 32.4347 84.6648C32.0439 84.8142 31.6272 84.8864 31.1844 84.8864C30.7415 84.8864 30.3144 84.8142 29.9288 84.6648C29.5433 84.5155 29.2047 84.3042 28.9182 84.0312C28.6317 83.7582 28.4024 83.4336 28.2409 83.0524C28.0742 82.6764 27.9961 82.2591 27.9961 81.8006C27.9961 81.3421 28.0794 80.93 28.2409 80.5488C28.4076 80.1727 28.6317 79.8482 28.9182 79.57C29.2047 79.297 29.5433 79.0857 29.9288 78.9364C30.3144 78.787 30.7311 78.7148 31.1844 78.7148C31.6376 78.7148 32.0439 78.787 32.4347 78.9364C32.8254 79.0857 33.164 79.297 33.4505 79.57C33.7371 79.843 33.9663 80.1676 34.1278 80.5488C34.2945 80.9248 34.3726 81.3421 34.3726 81.8006ZM28.8557 81.8006C28.8557 82.1767 28.9182 82.5115 29.0432 82.8051C29.1682 83.0988 29.335 83.3461 29.5485 83.5418C29.7569 83.7427 30.007 83.8973 30.2831 84.0003C30.5644 84.1085 30.8614 84.16 31.1791 84.16C31.4969 84.16 31.7939 84.1085 32.0752 84.0003C32.3565 83.8921 32.6014 83.7427 32.8097 83.5418C33.0181 83.3409 33.19 83.0936 33.3151 82.8051C33.4401 82.5115 33.5026 82.1767 33.5026 81.8006C33.5026 81.4245 33.4401 81.0897 33.3151 80.7961C33.19 80.5024 33.0233 80.2551 32.8097 80.0594C32.6014 79.8585 32.3513 79.7039 32.0752 79.6009C31.7939 79.4927 31.4969 79.4412 31.1791 79.4412C30.8614 79.4412 30.5644 79.4927 30.2831 79.6009C30.0018 79.7091 29.7569 79.8585 29.5485 80.0594C29.3402 80.2603 29.1682 80.5076 29.0432 80.7961C28.9182 81.0897 28.8557 81.4245 28.8557 81.8006Z" fill="#4D4E56"/>
<path d="M39.645 78.8333V84.7627H38.775V79.5236H36.4202V80.899C36.4202 82.2539 36.2639 83.2533 35.9462 83.8921C35.6284 84.5206 35.1491 84.8296 34.5135 84.8296C34.3624 84.8296 34.227 84.8193 34.1124 84.8039C33.9978 84.7833 33.8884 84.7524 33.7842 84.7008L33.9144 84.0002C34.0082 84.0312 34.0915 84.0518 34.1749 84.0621C34.2583 84.0724 34.3416 84.0827 34.425 84.0827C34.7532 84.0827 35.0084 83.8921 35.1908 83.516C35.4512 82.9699 35.5815 81.9757 35.5815 80.5333V78.8281H39.645V78.8333Z" fill="#4D4E56"/>
<path d="M43.8079 78.833V79.5336H40.9218V84.7624H40.0518V78.833H43.8079Z" fill="#4D4E56"/>
<path d="M49.6949 81.8006C49.6949 82.2591 49.6115 82.6712 49.45 83.0524C49.2833 83.4285 49.0593 83.753 48.7728 84.0312C48.4863 84.3042 48.1424 84.5155 47.7569 84.6648C47.3662 84.8142 46.9494 84.8864 46.5066 84.8864C46.0638 84.8864 45.6366 84.8142 45.2511 84.6648C44.8656 84.5155 44.527 84.3042 44.2405 84.0312C43.9539 83.7582 43.7247 83.4336 43.5632 83.0524C43.3965 82.6764 43.3184 82.2591 43.3184 81.8006C43.3184 81.3421 43.4017 80.93 43.5632 80.5488C43.7299 80.1727 43.9539 79.8482 44.2405 79.57C44.527 79.297 44.8656 79.0857 45.2511 78.9364C45.6366 78.787 46.0534 78.7148 46.5066 78.7148C46.9599 78.7148 47.3662 78.787 47.7569 78.9364C48.1476 79.0857 48.4863 79.297 48.7728 79.57C49.0593 79.843 49.2885 80.1676 49.45 80.5488C49.6167 80.9248 49.6949 81.3421 49.6949 81.8006ZM44.1779 81.8006C44.1779 82.1767 44.2405 82.5115 44.3655 82.8051C44.4905 83.0988 44.6572 83.3461 44.8708 83.5418C45.0792 83.7427 45.3293 83.8973 45.6054 84.0003C45.8867 84.1085 46.1836 84.16 46.5014 84.16C46.8192 84.16 47.1161 84.1085 47.3975 84.0003C47.6788 83.8921 47.9236 83.7427 48.132 83.5418C48.3404 83.3409 48.5123 83.0936 48.6373 82.8051C48.7624 82.5115 48.8249 82.1767 48.8249 81.8006C48.8249 81.4245 48.7624 81.0897 48.6373 80.7961C48.5123 80.5024 48.3456 80.2551 48.132 80.0594C47.9236 79.8585 47.6736 79.7039 47.3975 79.6009C47.1161 79.4927 46.8192 79.4412 46.5014 79.4412C46.1836 79.4412 45.8867 79.4927 45.6054 79.6009C45.324 79.7091 45.0792 79.8585 44.8708 80.0594C44.6624 80.2603 44.4905 80.5076 44.3655 80.7961C44.2405 81.0897 44.1779 81.4245 44.1779 81.8006Z" fill="#4D4E56"/>
<path d="M53.9407 78.7148V79.5545C54.1647 79.5185 54.4044 79.4979 54.6648 79.4979C55.0347 79.4979 55.3681 79.5545 55.6547 79.673C55.9464 79.7864 56.186 79.9461 56.3788 80.147C56.5716 80.3479 56.7226 80.5848 56.8216 80.8579C56.9206 81.1309 56.9727 81.4245 56.9727 81.7439C56.9727 82.0633 56.9206 82.357 56.8216 82.63C56.7226 82.903 56.5716 83.14 56.3788 83.3461C56.186 83.5521 55.9412 83.7118 55.6547 83.8251C55.3629 83.9385 55.0347 84.0003 54.6648 84.0003C54.4096 84.0003 54.1699 83.9797 53.9407 83.9436V84.7627H53.0811V83.9436C52.8519 83.9797 52.6071 84.0003 52.357 84.0003C51.9767 84.0003 51.6485 83.9436 51.362 83.8251C51.0754 83.7118 50.8358 83.5521 50.6378 83.3461C50.4451 83.14 50.294 82.903 50.195 82.63C50.096 82.357 50.0439 82.0633 50.0439 81.7439C50.0439 81.4245 50.096 81.1309 50.195 80.8579C50.294 80.5848 50.4451 80.3479 50.6378 80.147C50.8306 79.9461 51.0754 79.7864 51.362 79.673C51.6485 79.5597 51.9819 79.4979 52.357 79.4979C52.6071 79.4979 52.8467 79.5185 53.0811 79.5545V78.7148H53.9407ZM53.0811 80.2551C52.9613 80.2294 52.8363 80.2139 52.7113 80.2088C52.5862 80.2036 52.4612 80.1985 52.3414 80.1985C51.8829 80.1985 51.5287 80.3324 51.2838 80.5951C51.0338 80.8579 50.9087 81.2391 50.9087 81.7388C50.9087 82.2385 51.0338 82.6197 51.2838 82.8824C51.5339 83.1451 51.8881 83.2791 52.3414 83.2791C52.4612 83.2791 52.5862 83.2791 52.7113 83.2688C52.8363 83.2636 52.9613 83.2482 53.0811 83.2224V80.25V80.2551ZM53.9407 83.2276C54.0605 83.2533 54.1856 83.2688 54.3106 83.2739C54.4356 83.2791 54.5607 83.2842 54.6805 83.2842C55.1389 83.2842 55.488 83.1503 55.738 82.8876C55.9881 82.6248 56.1131 82.2436 56.1131 81.7439C56.1131 81.2442 55.9881 80.863 55.738 80.6003C55.488 80.3376 55.1337 80.2036 54.6805 80.2036C54.5607 80.2036 54.4356 80.2036 54.3106 80.2139C54.1856 80.2191 54.0605 80.2345 53.9407 80.2603V83.2327V83.2276Z" fill="#4D4E56"/>
<path d="M59.7902 78.833L62.3325 84.7624H61.426L60.6498 82.9645H57.92L57.1802 84.7624H56.2842L58.8317 78.833H59.7902ZM58.2013 82.2536H60.3737L59.3318 79.6727H59.2484L58.1961 82.2536H58.2013Z" fill="#4D4E56"/>
<path d="M37.4967 12.8376C42.774 7.87667 49.6402 4.71364 57.2827 4.16242C53.2192 1.53515 48.3691 0 43.1491 0C31.688 0 21.9774 7.37697 18.5859 17.5873C22.5661 15.4906 29.5052 12.6418 37.5019 12.8376H37.4967Z" fill="#96C121"/>
<path d="M27.3432 31.8003L27.3745 31.62C28.4893 25.5928 31.0629 20.194 34.7096 15.7997C29.7865 15.7688 24.2904 16.5312 18.2942 18.5249C17.6482 20.7606 17.2939 23.12 17.2939 25.5618C17.2939 33.9176 21.347 41.3358 27.6193 46.0031C26.5722 41.5264 26.4368 36.7097 27.3432 31.7952V31.8003Z" fill="#96C121"/>
<path d="M69.0041 25.567C69.0041 17.2886 65.0188 9.93219 58.8506 5.25977C52.6095 6.46522 47.1499 9.36037 42.8364 13.4352C49.2546 14.7386 56.0531 18.3137 62.3723 25.8967C62.3723 25.8967 54.2662 18.0149 40.2472 16.181C35.4179 21.9558 32.5631 29.441 32.4537 37.5907V37.7761C32.3964 41.9437 33.0476 45.9258 34.3031 49.5989C37.0642 50.5931 40.0388 51.134 43.1489 51.134C57.4284 51.134 69.0041 39.6873 69.0041 25.567Z" fill="#4D4E56"/>
</svg>
